<?xml version="1.0" encoding="utf-8"?>
<!-- Generator: Adobe Illustrator 19.2.1, SVG Export Plug-In . SVG Version: 6.00 Build 0)  -->
<svg version="1.1" id="Google_Plus_alt" xmlns="http://www.w3.org/2000/svg" xmlns:xlink="http://www.w3.org/1999/xlink" x="0px"
	 y="0px" viewBox="0 0 420 280" style="enable-background:new 0 0 420 280;" xml:space="preserve">
<path d="M271.7,113.8c1.8,9.4,2.7,19.2,2.7,29.4c0,80-53.5,136.9-134.4,136.9C62.7,280,0,217.3,0,140S62.7,0,140,0
	c37.8,0,69.4,13.9,93.6,36.5L194.2,76v-0.1c-14.7-14-33.3-21.2-54.2-21.2c-46.2,0-83.7,39-83.7,85.2c0,46.2,37.5,85.3,83.7,85.3
	c41.9,0,70.4-24,76.3-56.9H140v-54.6H271.7z M376.3,122.5V78.8h-35v43.8h-43.8v35h43.8v43.8h35v-43.8H420v-35H376.3z"/>
</svg>
